<?xml version="1.0" standalone="no"?><!DOCTYPE svg PUBLIC "-//W3C//DTD SVG 1.1//EN" "http://www.w3.org/Graphics/SVG/1.1/DTD/svg11.dtd"><svg t="1633848033109" class="icon" viewBox="0 0 1024 1024" version="1.1" xmlns="http://www.w3.org/2000/svg" p-id="4570" xmlns:xlink="http://www.w3.org/1999/xlink" width="200" height="200"><defs><style type="text/css"></style></defs><path d="M130.093 351.89h766c17.673 0 32-14.327 32-32v-128c0-17.673-14.327-32-32-32h-766c-17.673 0-32 14.327-32 32v128c0 17.673 14.327 32 32 32z m32-128h702v64h-702v-64zM128.025 527.448H480.1v33.598c0 17.673 14.327 32 32 32 17.673 0 32-14.327 32-32v-33.598h346.399c17.673 0 32-14.327 32-32s-14.327-32-32-32H544.1v-30.24c0-17.673-14.327-32-32-32-17.673 0-32 14.327-32 32v30.24H128.025c-17.673 0-32 14.327-32 32s14.327 32 32 32zM287.55 639.802h-158c-17.673 0-32 14.327-32 32v160c0 17.673 14.327 32 32 32h158c17.673 0 32-14.327 32-32v-160c0-17.673-14.327-32-32-32z m-32 160h-94v-96h94v96zM592.093 639.802h-158c-17.673 0-32 14.327-32 32v160c0 17.673 14.327 32 32 32h158c17.673 0 32-14.327 32-32v-160c0-17.673-14.327-32-32-32z m-32 160h-94v-96h94v96zM896.637 639.802h-158c-17.673 0-32 14.327-32 32v160c0 17.673 14.327 32 32 32h158c17.673 0 32-14.327 32-32v-160c0-17.673-14.327-32-32-32z m-32 160h-94v-96h94v96z" fill="" p-id="4571"></path></svg>