<?xml version="1.0" standalone="no"?><!DOCTYPE svg PUBLIC "-//W3C//DTD SVG 1.1//EN" "http://www.w3.org/Graphics/SVG/1.1/DTD/svg11.dtd"><svg t="1633848338430" class="icon" viewBox="0 0 1024 1024" version="1.1" xmlns="http://www.w3.org/2000/svg" p-id="13799" xmlns:xlink="http://www.w3.org/1999/xlink" width="200" height="200"><defs><style type="text/css"></style></defs><path d="M334 338.2h51.6v51.6H334v-51.6z m108-49.5h72.6v72.6H442v-72.6z m-54.4 107.9v35.3H352v261.6l85 46.3V396.6h-49.4z m330.3 296.8l-86.2 48.3V586.9h86.2v106.5z m-139 78.5l-43.5 23.6-43.4-23.6V490.3h86.9v281.6z" fill="#64B5F6" p-id="13800"></path><path d="M535.4 148.8l-224 125.6h23.3v31.4l200.7-112.4 284.8 159.5v319L535.4 831.3 250.7 671.8v-319l30.7-17.3h-8v-40l-62.4 35V694l324.4 181.8L859.9 694V330.5L535.4 148.8z" fill="#1E88E5" p-id="13801"></path></svg>